<?xml version="1.0" standalone="no"?>
<!DOCTYPE svg PUBLIC "-//W3C//DTD SVG 1.1//EN" "http://www.w3.org/Graphics/SVG/1.1/DTD/svg11.dtd" >
<svg xmlns="http://www.w3.org/2000/svg">
<metadata>
<json>
<![CDATA[
{
	"fontFamily": "icomoon",
	"majorVersion": 1,
	"minorVersion": 0,
	"version": "Version 1.0",
	"fontId": "icomoon",
	"psName": "icomoon",
	"subFamily": "Regular",
	"fullName": "icomoon",
	"description": "Font generated by IcoMoon."
}
]]>
</json>
</metadata>
<defs>
<font id="icomoon" horiz-adv-x="1024">
<font-face units-per-em="1024" ascent="960" descent="-64" />
<missing-glyph horiz-adv-x="1024" />
<glyph unicode="&#x20;" horiz-adv-x="512" d="" />
<glyph unicode="&#xe036;" glyph-name="search2" data-tags="search" d="M426.667 896q78 0 149.167-30.5t122.5-81.833 81.833-122.5 30.5-149.167q0-67-21.833-128.333t-62.167-111.333l242.333-242q12.333-12.333 12.333-30.333 0-18.333-12.167-30.5t-30.5-12.167q-18 0-30.333 12.333l-242 242.333q-50-40.333-111.333-62.167t-128.333-21.833q-78 0-149.167 30.5t-122.5 81.833-81.833 122.5-30.5 149.167 30.5 149.167 81.833 122.5 122.5 81.833 149.167 30.5zM426.667 810.667q-60.667 0-116-23.667t-95.333-63.667-63.667-95.333-23.667-116 23.667-116 63.667-95.333 95.333-63.667 116-23.667 116 23.667 95.333 63.667 63.667 95.333 23.667 116-23.667 116-63.667 95.333-95.333 63.667-116 23.667z" />
<glyph unicode="&#xe052;" glyph-name="global" data-tags="global, sphere" d="M1.088 405.291c11.328-272.352 235.808-490.624 510.912-490.624s499.584 218.272 510.912 490.624c0.608 1.696 1.088 3.456 1.088 5.376 0 1.152-0.416 2.144-0.64 3.2 0.096 4.288 0.64 8.48 0.64 12.8 0 282.304-229.696 512-512 512s-512-229.696-512-512c0-4.32 0.544-8.512 0.64-12.8-0.224-1.056-0.64-2.048-0.64-3.2 0-1.92 0.48-3.68 1.088-5.376zM797.472 210.923c-42.208 17.664-87.52 31.328-134.88 40.672 5.056 46.496 8.032 94.784 8.96 143.040h159.36c-2.912-65.728-14.592-127.776-33.44-183.712zM862.88 394.667h127.488c-5.952-89.792-36.416-172.896-85.216-242.528-24.288 17.056-50.464 32.608-78.624 46.080 20.64 59.808 33.344 126.176 36.352 196.448zM396.448 225.515c37.696 5.888 76.384 9.152 115.552 9.152s77.856-3.264 115.52-9.152c-22.208-170.72-70.72-278.848-115.52-278.848s-93.312 108.128-115.552 278.848zM445.056-42.581c-88.032 28.224-162.496 111.072-207.424 223.488 39.872 16.8 82.752 29.92 127.68 38.944 14.688-111.872 41.536-209.344 79.744-262.432zM392.768 595.979c38.944-6.016 78.88-9.312 119.232-9.312s80.288 3.296 119.232 9.312c5.504-51.84 8.768-108.416 8.768-169.312h-256c0 60.896 3.264 117.472 8.768 169.312zM639.52 394.667c-0.896-48.8-3.776-94.752-8.32-137.312-38.912 6.016-78.816 9.312-119.2 9.312s-80.288-3.296-119.232-9.312c-5.536 52.032-7.584 97.824-8.32 137.312h255.072zM658.72 219.851c44.928-9.024 87.776-22.144 127.68-38.944-44.928-112.416-119.392-195.264-207.424-223.488 38.176 53.088 65.024 150.56 79.744 262.432zM672 426.667c0 58.752-3.264 118.272-9.408 175.040 47.36 9.344 92.672 23.040 134.88 40.672 21.888-64.928 34.528-138.080 34.528-215.712h-160zM658.72 633.483c-14.72 111.872-41.536 209.376-79.776 262.432 88.032-28.224 162.496-111.072 207.424-223.488-39.872-16.8-82.72-29.952-127.648-38.944zM627.552 627.819c-37.696-5.888-76.384-9.152-115.552-9.152s-77.856 3.264-115.552 9.152c22.24 170.72 70.752 278.848 115.552 278.848s93.312-108.128 115.552-278.848zM365.28 633.483c-44.928 9.024-87.776 22.144-127.68 38.944 44.928 112.416 119.392 195.264 207.424 223.488-38.176-53.088-65.024-150.56-79.744-262.432zM361.408 601.707c-6.144-56.768-9.408-116.288-9.408-175.040h-160c0 77.632 12.64 150.784 34.528 215.744 42.208-17.664 87.52-31.328 134.88-40.704zM352.448 394.667c0.928-48.256 3.904-96.544 8.96-143.072-47.36-9.344-92.672-23.040-134.88-40.672-18.848 55.936-30.528 117.984-33.44 183.744h159.36zM197.44 198.219c-28.16-13.504-54.304-29.024-78.592-46.080-48.8 69.632-79.264 152.704-85.216 242.528h127.488c3.008-70.272 15.712-136.64 36.32-196.448zM138.016 126.507c21.92 15.328 45.344 29.504 70.624 41.76 32.128-79.52 78.368-145.536 133.952-190.176-80.832 30.656-151.328 82.176-204.576 148.416zM681.408-21.877c55.616 44.608 101.824 110.656 133.952 190.176 25.28-12.288 48.704-26.432 70.624-41.76-53.248-66.272-123.744-117.792-204.576-148.416zM864 426.667c0 82.144-13.696 159.584-37.44 228.448 28.16 13.504 54.336 29.024 78.624 46.080 54.528-77.888 86.816-172.448 86.816-274.528h-128zM886.016 726.827c-21.92-15.328-45.344-29.472-70.624-41.76-32.128 79.52-78.368 145.568-133.952 190.176 80.8-30.656 151.296-82.176 204.576-148.416zM342.592 875.211c-55.616-44.608-101.824-110.656-133.952-190.176-25.312 12.288-48.704 26.464-70.624 41.792 53.248 66.24 123.744 117.76 204.576 148.384zM118.848 701.195c24.256-17.056 50.432-32.576 78.592-46.080-23.744-68.864-37.44-146.304-37.44-228.448h-128c0 102.080 32.288 196.64 86.848 274.528z" />
<glyph unicode="&#xe079;" glyph-name="box2" data-tags="box" d="M42.667 725.334l469.333 213.333 469.333-213.333v-597.333l-469.333-213.333-469.333 213.333v597.333zM469.333 484.667l-341.333 155v-456.667l341.333-155.333v457zM896 183v456.667l-341.333-155v-457zM826.667 702l-314.667 143-314.667-143 314.667-143z" />
<glyph unicode="&#xe117;" glyph-name="cross" data-tags="cross" d="M810.667 768q18.333 0 30.5-12.167t12.167-30.5q0-18-12.333-30.333l-268.667-268.333 268.667-268.333q12.333-12.333 12.333-30.333 0-18.333-12.167-30.5t-30.5-12.167q-18 0-30.333 12.333l-268.333 268.667-268.333-268.667q-12.333-12.333-30.333-12.333-18.333 0-30.5 12.167t-12.167 30.5q0 18 12.333 30.333l268.667 268.333-268.667 268.333q-12.333 12.333-12.333 30.333 0 18.333 12.167 30.5t30.5 12.167q18 0 30.333-12.333l268.333-268.667 268.333 268.667q12.333 12.333 30.333 12.333z" />
<glyph unicode="&#xe120;" glyph-name="menu2" data-tags="menu" d="M128 725.334h768q17.667 0 30.167-12.5t12.5-30.167-12.5-30.167-30.167-12.5h-768q-17.667 0-30.167 12.5t-12.5 30.167 12.5 30.167 30.167 12.5zM128 213.334h768q17.667 0 30.167-12.5t12.5-30.167-12.5-30.167-30.167-12.5h-768q-17.667 0-30.167 12.5t-12.5 30.167 12.5 30.167 30.167 12.5zM128 469.334h768q17.667 0 30.167-12.5t12.5-30.167-12.5-30.167-30.167-12.5h-768q-17.667 0-30.167 12.5t-12.5 30.167 12.5 30.167 30.167 12.5z" />
<glyph unicode="&#xe409;" glyph-name="next" data-tags="navigate_next" d="M426 682.667l256-256-256-256-60 60 196 196-196 196z" />
<glyph unicode="&#xe40a;" glyph-name="prev" data-tags="navigate_prev" d="M598 682.667l-256-256 256-256 60 60-196 196 196 196z" />
<glyph unicode="&#xe5d2;" glyph-name="menu" data-tags="menu" d="M128 682.667h768v-86h-768v86zM128 384.667v84h768v-84h-768zM128 170.667v86h768v-86h-768z" />
<glyph unicode="&#xe7fd;" glyph-name="person-fill" data-tags="person" d="M512 340.667c114 0 342-56 342-170v-86h-684v86c0 114 228 170 342 170zM512 426.667c-94 0-170 76-170 170s76 172 170 172 170-78 170-172-76-170-170-170z" />
<glyph unicode="&#xe7fe;" glyph-name="person-fill-add" data-tags="person_add" d="M640 340.667c114 0 342-56 342-170v-86h-684v86c0 114 228 170 342 170zM256 512.667h128v-86h-128v-128h-86v128h-128v86h128v128h86v-128zM640 426.667c-94 0-170 76-170 170s76 172 170 172 170-78 170-172-76-170-170-170z" />
<glyph unicode="&#xe80d;" glyph-name="share" data-tags="share" d="M768 252.667c68 0 124-56 124-124s-56-126-124-126-124 58-124 126c0 10 0 20 2 28l-302 176c-24-22-54-34-88-34-70 0-128 58-128 128s58 128 128 128c34 0 64-12 88-34l300 174c-2 10-4 20-4 30 0 70 58 128 128 128s128-58 128-128-58-128-128-128c-34 0-64 14-88 36l-300-176c2-10 4-20 4-30s-2-20-4-30l304-176c22 20 52 32 84 32z" />
<glyph unicode="&#xe900;" glyph-name="menu-angle-down" data-tags="if_ExpandMore_1031518" d="M777.12 577.579l-265.12-265.184-265.12 265.216c-12.64 12.64-33.088 12.64-45.728 0-12.608-12.64-12.608-33.12 0-45.76l287.968-288.064c12.608-12.64 33.088-12.64 45.696 0l287.968 288.064c12.608 12.64 12.608 33.152 0 45.792-12.576 12.576-33.056 12.576-45.664-0.064z" />
<glyph unicode="&#xe901;" glyph-name="menu-angle-down-1" data-tags="if_icon-ios7-arrow-down_211687" d="M793.2 618.667l38.8-41.4-320-342.6-320 342.6 38.6 41.4 281.4-301z" />
<glyph unicode="&#xe902;" glyph-name="location" data-tags="location, map" d="M512.064 370.795c105.888 0 192 86.144 192 192s-86.112 192-192 192c-105.888 0-192-86.112-192-192s86.112-192 192-192zM512.064 722.795c88.256 0 160-71.744 160-160s-71.744-160-160-160c-88.256 0-160 71.744-160 160s71.744 160 160 160zM512 938.667c-211.776 0-384-170.112-384-384.032 0-224 192.032-453.152 332.032-614.208 0.512-0.64 22.976-25.76 50.752-25.76 0.064 0 2.336 0 2.464 0 27.744 0 50.24 25.12 50.752 25.76 140.064 161.056 332.064 390.176 332.064 614.208 0 213.92-172.256 384.032-384.064 384.032zM515.744-17.589c-0.672-0.64-2.624-2.048-4.32-3.136-0.32 0.864-2.688 2.752-4.128 4.256-117.28 134.944-315.296 362.688-315.296 571.104 0 176.448 143.584 320.032 320 320.032 176.512 0 320.064-143.584 320.064-320.064 0-208.384-198.016-436.128-316.32-572.192z" />
<glyph unicode="&#xe903;" glyph-name="clock2" data-tags="chronometer, timer, clock" d="M897.728 344.395c0-221.856-179.84-401.728-401.728-401.728-221.856 0-401.728 179.872-401.728 401.728 0 215.104 169.152 390.144 381.664 400.672v69.312h-30.112c-17.76 0-32.16 14.4-32.16 32.16s14.4 32.128 32.16 32.128h96.384c17.76 0 32.16-14.368 32.16-32.128s-14.4-32.16-32.16-32.16h-34.112v-68.896c216.224-6.4 389.632-183.328 389.632-401.088zM475.936 621.579v73.312c-99.488-5.632-187.712-52.48-248.512-123.456l52.896-52.896-22.72-22.752-50.080 50.112c-40.768-57.536-65.024-127.584-65.024-203.488 0-3.392 0.48-8.032 0.48-8.032h77.824v-32.16h-75.52c7.808-65.664 33.824-127.584 72.576-177.088l39.776 39.776 22.72-22.72-41.472-41.504c60.128-63.872 143.616-105.504 237.056-110.784v87.328h32.128v-87.744c95.648 3.264 181.44 44.576 243.168 109.12l-45.568 45.568 22.72 22.72 44.064-44.032c39.68 49.92 66.368 112.672 74.304 179.328h-81.6v32.16h83.872c0.096 3.328 0.512 4.64 0.512 8.032 0 78.016-25.6 149.792-68.416 208.16l-52.736-52.736-22.72 22.72 55.232 55.2c-62.304 70.496-152.096 116.192-252.8 119.584v-73.728h-32.16zM510.048 334.347h112.512c8.864 0 16.064-7.232 16.064-16.064 0-8.864-7.2-16.096-16.064-16.096h-128.576c-8.864 0-16.064 7.232-16.064 16.096v222.944c0 8.864 7.2 16.064 16.064 16.064s16.064-7.2 16.064-16.064v-206.88z" />
<glyph unicode="&#xe904;" glyph-name="chat" data-tags="chat-80px" d="M192 746.667v-486.4h179.2v-166.4l165.363 166.4h294.4v486.4h-638.963zM536.563 324.267h-26.509l-75.878-75.878v75.878h-179.2v358.4h513.024v-358.4h-231.437zM408.563 503.467c0-28.277-22.923-51.2-51.2-51.2s-51.2 22.923-51.2 51.2c0 28.277 22.923 51.2 51.2 51.2s51.2-22.923 51.2-51.2zM562.163 503.467c0-28.277-22.923-51.2-51.2-51.2s-51.2 22.923-51.2 51.2c0 28.277 22.923 51.2 51.2 51.2s51.2-22.923 51.2-51.2zM715.763 503.467c0-28.277-22.923-51.2-51.2-51.2s-51.2 22.923-51.2 51.2c0 28.277 22.923 51.2 51.2 51.2s51.2-22.923 51.2-51.2z" />
<glyph unicode="&#xe905;" glyph-name="check-box" data-tags="check-box-outline" d="M278.756 534.756l-79.644-79.644 256-256 568.889 568.889-79.644 79.644-489.244-489.244-176.356 176.356zM910.222 28.445h-796.444v796.444h568.889v113.778h-568.889c-62.578 0-113.778-51.2-113.778-113.778v-796.444c0-62.578 51.2-113.778 113.778-113.778h796.444c62.578 0 113.778 51.2 113.778 113.778v455.111h-113.778v-455.111z" />
<glyph unicode="&#xe906;" glyph-name="box" data-tags="box" d="M506.816 21.835l-342.496 196.864v416l342.528 196.832 343.296-196.832v-416.032l-343.328-196.832zM208.512 244.267l281.408-161.76v342.336l-281.408 159.136v-339.712zM534.080 424.843v-336.48l271.84 155.904v334.336l-271.84-153.76zM392.096 530.955l119.904-67.808 276.128 156.16-135.424 77.664-260.608-166.016zM231.008 622.027l117.504-66.464 260.864 166.208-102.528 58.816-275.84-158.56z" />
<glyph unicode="&#xe907;" glyph-name="phone" data-tags="phone" d="M687.456 15.147c-56.768 0-132.512 16.32-222.72 73.952-2.208 1.056-93.792 49.504-179.936 137.216l31.52 31.008c81.056-82.56 169.664-129.568 170.56-130.016 169.152-107.936 275.072-56.992 290.656-48.352l66.528 66.496c11.648 11.328 4.064 32.192 0.992 39.2l-138.016 138.048c-19.168 17.6-35.968 3.392-39.136 0.416l-94.080-94.208-11.52 2.24c-46.208 8.928-138.432 97.984-156.448 115.712l31.040 31.488c36.16-35.616 93.984-85.792 123.744-100.16l76.448 76.512c20 19.136 62.976 34.464 100.576-0.096l145.152-146.432c11.456-21.024 22.784-64.576-7.648-94.176l-72.064-71.328c-3.008-1.92-44.448-27.52-115.648-27.52zM292.544 218.571c-88.448 86.144-136.96 177.792-138.976 181.664-129.664 201.6-49.632 331.328-46.176 336.704l3.008 3.712 68.512 68.512c29.312 30.24 72.864 18.976 93.952 7.456l5.024-3.712 141.44-140.704c35.296-38.4 19.904-81.312 1.12-100.928l-76.672-76.672c14.816-29.92 65.088-87.712 100.704-123.872l-31.456-31.040c-17.728 18.016-106.688 110.080-116.384 156.096l-2.464 11.712 94.688 94.656c4.832 5.344 15.456 21.056-1.376 39.392l-138.112 137.344c-6.976 3.040-27.84 10.72-39.008-0.768l-66.752-66.752c-8.448-15.168-59.776-121.024 48.128-288.96 1.44-2.56 48.48-91.168 131.648-172.16l-30.848-31.68z" />
<glyph unicode="&#xe908;" glyph-name="arrow-left-circle" data-tags="arrow_left_circle" d="M813.252 426.667c0-14.136-11.46-24-25.6-24h-488.14l188.564-183.824c10.152-9.852 10.388-26.464 0.552-36.596-5.024-5.18-11.7-7.98-18.376-7.98-6.424 0-12.864 2.304-17.824 7.128l-233.864 226.948c-4.976 4.824-7.772 11.42-7.772 18.348s2.796 13.54 7.772 18.364l233.864 226.972c10.112 9.836 26.336 9.604 36.2-0.556 9.836-10.136 9.6-27.156-0.552-37.004l-188.564-183.8h488.136c14.14 0 25.604-9.864 25.604-24zM1024 426.667c0 282.312-229.688 512-512 512s-512-229.688-512-512 229.688-512 512-512 512 229.688 512 512zM972.8 426.667c0-254.084-206.716-460.8-460.8-460.8s-460.8 206.716-460.8 460.8 206.716 460.8 460.8 460.8 460.8-206.716 460.8-460.8z" />
<glyph unicode="&#xe909;" glyph-name="heart" data-tags="heart" d="M530.731-26.112l-18.688-8.021-18.731 8.021c-240.469 142.293-493.312 466.475-493.312 646.528 0.896 147.413 125.781 267.051 279.253 267.051 97.067 0 182.656-47.829 232.789-120.192 50.133 72.405 135.68 120.192 232.704 120.192 153.515 0 278.443-119.637 279.253-267.051 0-180.053-252.843-504.235-493.269-646.528zM744.747 842.71c-78.037 0-150.528-37.504-193.963-100.309l-38.741-56.021-38.699 56.021c-43.435 62.805-115.883 100.267-193.963 100.267-127.616 0-232.021-99.84-232.747-222.251 0-158.891 238.208-467.755 465.451-605.056 227.328 137.301 465.493 446.165 465.493 604.8-0.725 122.752-105.088 222.507-232.832 222.549v0z" />
<glyph unicode="&#xe90a;" glyph-name="heart-fill" data-tags="heart-fill" d="M530.731-26.112l-18.688-8.021-18.731 8.021c-240.469 142.293-493.312 466.475-493.312 646.528 0.896 147.413 125.781 267.051 279.253 267.051 97.067 0 182.656-47.829 232.789-120.192 50.133 72.405 135.68 120.192 232.704 120.192 153.515 0 278.443-119.637 279.253-267.051 0-180.053-252.843-504.235-493.269-646.528z" />
<glyph unicode="&#xe90b;" glyph-name="call" data-tags="thefreeforty_call" d="M808.96 430.080c0-13.653 10.24-27.307 27.307-27.307s27.307 10.24 27.307 27.307c0 187.733-153.6 341.333-341.333 341.333-13.653 0-27.307-10.24-27.307-27.307s10.24-27.307 27.307-27.307c157.013 3.413 286.72-126.293 286.72-286.72zM494.933 607.574c0-13.653 10.24-27.307 27.307-27.307 81.92 0 146.773-64.853 146.773-146.773 0-13.653 10.24-27.307 27.307-27.307s27.307 10.24 27.307 27.307c0 109.227-88.747 197.973-197.973 197.973-20.48 0-30.72-10.24-30.72-23.893zM518.827 931.84c-13.653 0-27.307-10.24-27.307-27.307s10.24-27.307 27.307-27.307c245.76 0 447.147-201.387 447.147-447.147 0-13.653 10.24-27.307 27.307-27.307s27.307 10.24 27.307 27.307c-3.413 276.48-225.28 501.76-501.76 501.76zM662.187 334.507c-3.413 3.413-10.24 6.827-17.067 6.827v0c-6.827 0-13.653-3.413-17.067-6.827l-54.613-54.613c-20.48-20.48-54.613-20.48-75.093 0l-126.293 116.053c-20.48 20.48-20.48 54.613 0 75.093l61.44 61.44c10.24 10.24 10.24 27.307 0 37.547l-252.587 249.173c-3.413 3.413-10.24 6.827-17.067 6.827s-13.653-3.413-17.067-6.827c-3.413-3.413-81.92-81.92-98.987-102.4-47.787-47.787-54.613-146.773-20.48-232.107 75.093-187.733 324.267-416.427 532.48-542.72 17.067-10.24 58.027-20.48 98.987-20.48 0 0 0 0 0 0 37.547 0 92.16 6.827 139.947 47.787 44.373 37.547 95.573 92.16 98.987 95.573 10.24 10.24 10.24 27.307 0 34.133l-235.52 235.52zM764.587 10.24c-34.133-30.72-75.093-34.133-105.813-34.133 0 0 0 0 0 0-37.547 0-68.267 10.24-71.68 13.653-235.52 139.947-450.56 354.987-512 515.413-27.307 71.68-17.067 150.187 6.827 177.493 13.653 13.653 54.613 54.613 81.92 81.92l211.627-211.627-44.373-44.373c-40.96-40.96-40.96-105.813 0-146.773l126.293-116.053c37.547-37.547 105.813-37.547 146.773 0l37.547 37.547 197.973-197.973c-17.067-23.893-47.787-54.613-75.093-75.093z" />
<glyph unicode="&#xe90c;" glyph-name="search3" data-tags="search" d="M621.668 284.999c-44.476-31.692-98.895-50.332-157.668-50.332-150.221 0-272 121.779-272 272s121.779 272 272 272c150.221 0 272-121.779 272-272 0-75.111-30.445-143.111-79.667-192.333l191.916-191.916c8.802-8.802 8.588-22.915-0.249-31.751-8.898-8.898-23.052-8.948-31.751-0.249l-194.581 194.581zM464 266.667c132.548 0 240 107.452 240 240s-107.452 240-240 240c-132.548 0-240-107.452-240-240s107.452-240 240-240v0z" />
<glyph unicode="&#xe90d;" glyph-name="box3" data-tags="box" d="M52.572 627.811v18.284l182.856 292.572h548.572l182.856-292.572v-731.428h-914.284v713.144zM97.371 646.095h824.686l-160 256h-504.69l-160-256zM89.144 463.239v-512h841.144v512h-841.144zM418.189 280.383h183.047c40.285 0 73.049-32.746 73.049-73.144 0-40.677-32.704-73.144-73.049-73.144h-183.047c-40.285 0-73.049 32.746-73.049 73.144 0 40.677 32.704 73.144 73.049 73.144zM418.394 243.811c-20.257 0-36.678-16.232-36.678-36.572 0-20.197 16.012-36.572 36.678-36.572h182.645c20.257 0 36.678 16.232 36.678 36.572 0 20.197-16.012 36.572-36.678 36.572h-182.645zM89.144 609.523v-109.716h841.144v109.716h-841.144z" />
<glyph unicode="&#xe90e;" glyph-name="chat3" data-tags="chat-3, comment, bubble, message, talk" d="M277.333 554.667c35.328 0 64-28.629 64-64s-28.672-64-64-64-64 28.629-64 64 28.672 64 64 64zM490.667 554.667c35.328 0 64-28.629 64-64s-28.672-64-64-64-64 28.629-64 64 28.672 64 64 64zM704 554.667c35.328 0 64-28.629 64-64s-28.672-64-64-64-64 28.629-64 64 28.672 64 64 64zM853.333 896h-725.333c-70.571 0-128-57.429-128-128v-512c0-70.571 85.333-85.333 128-85.333v-256l384 256h341.333c70.571 0 128 57.429 128 128v469.333c0 70.571-57.429 128-128 128zM896 298.667c0-23.509-19.157-42.667-42.667-42.667h-384l-256-213.333v213.333h-85.333c-23.509 0-42.667 19.157-42.667 42.667v469.333c0 23.509 19.157 42.667 42.667 42.667h725.333c23.509 0 42.667-19.157 42.667-42.667v-469.333z" />
<glyph unicode="&#xe90f;" glyph-name="leather-derby-shoe" data-tags="leather-derby-shoe" d="M1018.563 363.279c-3.337 2.14-7.514 2.457-11.134 0.866-2.408 10.463-7.466 19.726-15.169 27.658-34.368 35.401-114.46 35.125-172.96 34.926-16.202-0.052-30.191-0.104-40.751 0.601-47.657 3.176-118.192 43.208-139.138 55.688l0.953 11.446c0.329 3.95-1.341 7.8-4.451 10.257-115.136 91.037-209.428 116.967-213.387 118.024-4.803 1.284-9.462-0.908-12.745-4.642-29.34-33.379-74.329-67.669-74.579-67.853-51.54-38.003-113.244-48.546-183.404-31.343-53.316 13.074-91.711 38.102-92.085 38.348-3.725 2.462-8.516 2.613-12.385 0.404-3.718-2.124-13.591-7.764-38.849-101.136-16.846-62.27-5.111-101.524 5.257-121.477-0.705-0.43-5.666-3.947-5.666-10.084v-82.741c0-6.532 5.295-11.825 11.825-11.825h265.052c6.53 0 11.825 5.293 11.825 11.825v17.955c87.109-1.253 146.676-8.043 204.317-14.999 100.514-12.128 194.822-14.956 199.478-14.956 138.654 0 291.549 51.682 318.971 73.499 2.819 2.244 4.463 5.652 4.463 9.254v40.356c0 4.025-2.050 7.776-5.437 9.949zM627.874 390.23c2.597 2.029 4.229 5.052 4.503 8.334l4.855 58.304c29.55-16.931 92.645-50 139.741-53.139 11.387-0.757 25.762-0.702 42.404-0.65 51.18 0.184 128.541 0.442 155.911-27.751 5.574-5.74 8.779-12.511 9.772-20.528-35.598-14.121-110.071-40.668-194.266-53.077-24.986-3.682-54.312-5.548-87.156-5.548-62.147 0-123.087 6.447-163.413 10.716-6.584 0.698-156.431 16.895-208.316 20.154 46.694 98.494 284.279 61.234 286.781 60.827 3.261-0.53 6.584 0.326 9.183 2.358zM31.31 450.347c12.977 47.969 21.443 70.523 26.027 80.764 15.718-8.892 47.593-24.96 88.079-34.99 76.339-18.915 146.683-6.87 203.461 34.824 4.94 3.117 27.055 19.998 75.126 66.602 7.646-2.519 20.786-7.213 38.055-14.708l-10.24-19.419c-3.046-5.775-0.832-12.929 4.945-15.975 1.76-0.927 3.644-1.367 5.506-1.367 4.247 0 8.351 2.294 10.47 6.312l10.855 20.587c9.841-4.737 20.54-10.2 31.948-16.46l-10.153-21.022c-2.84-5.879-0.376-12.951 5.506-15.791 1.658-0.802 3.408-1.18 5.134-1.18 4.394 0 8.616 2.46 10.657 6.683l9.448 19.561c9.718-5.761 19.833-12.061 30.26-18.932l-8.753-21.684c-2.443-6.057 0.485-12.948 6.539-15.394 1.45-0.584 2.949-0.861 4.422-0.861 4.68 0 9.11 2.795 10.969 7.4l6.818 16.893c9.763-6.882 19.731-14.228 29.874-22.117l-6.416-77.046c-54.43 7.078-262.732 26.443-302.965-84.571-19.96 1-41.146 1.764-63.932 2.207-111.452 2.154-172.988 4.141-201.746 5.234-3.207 3.609-30.733 37.414-9.893 114.45zM1000.35 319.219c-15.554-9.29-55.078-24.589-106.499-38.038-67.35-17.612-135.993-27.313-193.284-27.313-4.451 0-107.637 5.193-196.726 14.795-60.95 6.568-123.844 14.523-218.8 15.292-0.033 0-0.064 0-0.097 0-6.312 0-11.825-1.93-11.825-11.825v-18.085h-241.4v58.557c24.269-0.989 86.764-1.771 210.778-5.581 136.795-4.203 288.709-22.952 295.243-23.643 40.819-4.323 102.505-10.85 165.9-10.85 33.994 0 64.479 1.949 90.604 5.801 92.898 13.691 172.605 43.355 206.105 57.079v-16.188z" />
<glyph unicode="&#xe910;" glyph-name="business-tie" data-tags="business-tie-outline-stroke" d="M597.333 682.667l165.346-274.739c7.642-12.698 6.958-32.887-1.45-44.984l-44.679-64.277-119.218 384zM309.088 828.941c-29.32 37.036-14.681 67.059 31.904 67.059h299.348c46.94 0 61.069-30.219 31.904-67.059l-109.044-137.741 162.133-584.533-234.667-149.333-234.667 149.333 162.133 584.533-109.044 137.741zM465.042 700.686l-159.548-574.819 185.167-117.964 185.261 117.964-159.629 574.819 120.721 152.647h-292.805l120.833-152.647z" />
<glyph unicode="&#xe911;" glyph-name="globe" data-tags="globe" d="M512.004 924.667c-0.136 0-0.274 0-0.426 0-0.058 0-0.122 0-0.196 0-0.196 0-0.39-0.040-0.586-0.040-274.504-0.622-496.796-223.32-496.796-497.96 0-274.562 222.292-497.3 496.796-497.96 0.196 0 0.39-0.040 0.586-0.040 0.074 0 0.136 0 0.196 0 0.152 0 0.29 0 0.426 0 274.984 0 497.996 223.012 497.996 498 0 275.028-223.012 498-497.996 498zM531.914 626.645c52.796 1.44 104.192 8.404 153.64 20.464 14.942-58.71 24.164-126.368 25.64-200.522h-179.282v180.058zM531.914 666.485v215.19c53.73-14.862 108.122-86.45 142.79-196.244-45.99-11.086-93.728-17.546-142.79-18.946zM492.084 882.143v-215.658c-49.448 1.4-97.578 7.976-143.934 19.258 34.956 110.456 89.874 182.316 143.934 196.4zM492.084 626.685v-180.096h-180.506c1.458 74.272 10.738 142.008 25.658 200.756 49.858-12.178 101.624-19.26 154.848-20.66zM271.484 446.587h-217.138c4.396 102.4 42.544 196.242 103.626 270.554 44.354-24.434 91.412-44.432 140.708-59.372-16.088-63.532-25.738-135.158-27.196-211.182zM271.484 406.747c1.458-75.984 11.108-147.61 27.198-211.144-49.278-14.978-96.354-34.976-140.708-59.408-61.082 74.31-99.23 168.15-103.626 270.552h217.136zM311.578 406.747h180.506v-179.864c-53.222-1.4-105.008-8.522-154.866-20.736-14.922 58.708-24.182 126.404-25.64 200.6zM492.084 187.083v-215.892c-54.098 14.124-109.054 86.062-143.992 196.634 46.374 11.282 94.522 17.856 143.992 19.258zM531.914-28.341v215.424c49.062-1.402 96.8-7.898 142.828-18.986-34.668-109.872-89.098-181.576-142.828-196.438zM531.914 226.883v179.864h179.282c-1.476-74.076-10.7-141.656-25.562-200.328-49.528 12.062-100.884 19.064-153.72 20.464zM751.27 406.747h218.382c-4.394-102.402-42.524-196.206-103.606-270.516-44.708 24.59-92.172 44.742-141.894 59.76 16.066 63.458 25.676 134.928 27.118 210.756zM751.27 446.587c-1.442 75.944-11.090 147.454-27.156 210.95 49.684 15.018 97.152 35.132 141.816 59.72 61.16-74.31 99.328-168.192 103.722-270.67h-218.382zM838.5 747.683c-39.644-21.086-81.472-38.516-125.164-51.746-23.304 74.934-55.988 136.094-94.66 176.246 84.816-20.35 160.566-64.234 219.824-124.5zM403.748 871.793c-38.46-40.074-71.004-100.962-94.212-175.506-43.266 13.19-84.74 30.464-124.014 51.396 58.862 59.876 134.032 103.646 218.226 124.11zM185.384 105.807c39.314 20.97 80.808 38.244 124.112 51.434 23.208-74.622 55.752-135.588 94.25-175.7-84.25 20.502-159.458 64.312-218.362 124.266zM618.676-18.809c38.714 40.152 71.394 101.352 94.7 176.402 43.73-13.27 85.594-30.66 125.242-51.824-59.258-60.306-135.048-104.268-219.942-124.578z" />
<glyph unicode="&#xe912;" glyph-name="tag" data-tags="05.Tag" d="M951.509 431.467l-486.315-486.315c-0.683-1.024-1.131-2.176-2.027-3.072-4.203-4.181-9.749-6.123-15.253-5.995-5.504-0.128-11.051 1.813-15.253 5.995-0.896 0.896-1.323 2.048-2.027 3.072l-357.568 357.568c-1.024 0.683-2.155 1.131-3.072 2.027-4.203 4.203-6.101 9.749-5.995 15.253-0.128 5.504 1.792 11.051 5.995 15.253 0.917 0.896 2.048 1.323 3.072 2.027l486.315 486.293c3.904 5.013 9.707 8.427 16.533 8.427h0.448c0.043 0 0.085 0 0.128 0h85.952c2.837 32.043 15.915 60.16 35.627 78.571l0.341-0.384c4.181 4.416 9.877 7.147 16.171 7.147 12.629 0 22.869-10.923 22.869-24.384 0-8-3.84-14.741-9.408-19.179-10.219-9.429-17.493-24.299-19.925-41.771h101.867c0.043 0 0.085 0 0.171 0h0.427c6.827 0 12.672-3.413 16.533-8.427l124.373-124.373c4.992-3.904 8.427-9.728 8.427-16.555v-0.448c0-0.043 0-0.085 0-0.128v-233.493c0-0.043 0-0.085 0-0.149v-0.427c0-6.827-3.413-12.651-8.405-16.533zM730.752 583.126c-4.117-4.395-9.835-7.125-16.171-7.125-12.629 0-22.827 10.923-22.827 24.384 0 8 3.84 14.741 9.408 19.2 5.291 4.885 9.621 11.456 13.163 18.837-18.24-4.864-31.744-21.333-31.744-41.067 0-23.552 19.115-42.667 42.667-42.667 23.573 0 42.667 19.115 42.667 42.667 0 10.091-3.627 19.221-9.493 26.539-13.12-33.003-27.669-40.768-27.669-40.768zM917.248 674.539l-114.795 114.795h-89.877c3.712-9.472 9.045-17.536 15.467-23.467v0c0.875-0.704 1.963-1.131 2.709-1.963l0.384 0.384c22.208-20.757 36.8-53.504 36.8-90.752 0-0.896-0.213-1.685-0.256-2.56 25.536-14.741 42.923-42.027 42.923-73.643 0-47.125-38.208-85.333-85.333-85.333s-85.333 38.208-85.333 85.333c0 45.803 36.16 82.88 81.493 84.949-1.92 18.944-9.408 35.157-20.245 45.184-0.875 0.704-1.963 1.131-2.752 1.963l-0.341-0.384c-15.872 14.827-27.584 35.947-33.131 60.288h-80.917l-469.333-469.333 333.205-333.205 469.333 469.333v218.411zM304.683 356.587c8.149 8.128 21.333 8.128 29.461 0l150.379-150.379c8.128-8.128 8.128-21.312 0-29.461-8.128-8.128-21.333-8.128-29.461 0l-150.379 150.379c-8.128 8.128-8.128 21.312 0 29.461zM390.016 441.92c8.149 8.128 21.333 8.128 29.461 0l150.357-150.379c8.128-8.128 8.128-21.312 0-29.461-8.128-8.128-21.333-8.128-29.461 0l-150.357 150.379c-8.128 8.128-8.128 21.312 0 29.461z" />
<glyph unicode="&#xe913;" glyph-name="handbag" data-tags="09.Handbag" d="M917.333-42.666h-810.667c-47.125 0-85.333 38.208-85.333 85.333l85.333 512c14.464 73.429 56.917 85.333 104.043 85.333h56.576c32.171 148.224 129.557 256 244.715 256s212.544-107.776 244.715-256h56.576c47.125 0 89.579-11.904 104.043-85.333l85.333-512c0-47.125-38.208-85.333-85.333-85.333zM512 853.334c-92.843 0-171.627-89.131-200.917-213.333h401.856c-29.312 124.203-108.075 213.333-200.939 213.333zM874.667 554.667c-6.571 28.821-20.416 42.667-50.56 42.667h-60.331c2.624-20.821 4.224-42.133 4.224-64 0-11.776-9.536-21.333-21.333-21.333s-21.333 9.557-21.333 21.333c0 21.909-1.472 43.328-4.288 64h-418.091c-2.795-20.672-4.288-42.091-4.288-64 0-11.776-9.536-21.333-21.333-21.333s-21.333 9.557-21.333 21.333c0 21.867 1.6 43.179 4.203 64h-60.331c-30.123 0-43.947-13.845-50.539-42.667l-85.333-512c0-23.552 19.115-42.667 42.667-42.667h810.667c23.552 0 42.667 19.115 42.667 42.667l-85.333 512z" />
<glyph unicode="&#xe914;" glyph-name="error" data-tags="error_outline" d="M512 84.667c188 0 342 154 342 342s-154 342-342 342-342-154-342-342 154-342 342-342zM512 852.667c236 0 426-190 426-426s-190-426-426-426-426 190-426 426 190 426 426 426zM470 640.667h84v-256h-84v256zM470 298.667h84v-86h-84v86z" />
<glyph unicode="&#xe915;" glyph-name="badge" data-tags="42.Badge" d="M789.163 501.696v-85.76l-74.347-42.901-42.88-74.283h-10.901c0-0.021 0.021-0.064 0.021-0.085v-320c0-0.085-0.043-0.149-0.043-0.235 0.085-5.419-1.899-10.88-6.037-15.019s-9.6-6.123-15.040-6.037c-0.064 0-0.128-0.043-0.213-0.043-6.827 0-12.651 3.413-16.533 8.427l-111.467 111.467-111.467-111.467c-3.883-5.013-9.685-8.427-16.533-8.427-0.085 0-0.149 0.043-0.213 0.043-5.44-0.085-10.901 1.899-15.040 6.037-4.117 4.139-6.123 9.6-6.037 15.019 0 0.085-0.043 0.149-0.043 0.235v320c0 0.021 0.021 0.064 0.021 0.085h-10.816l-42.923 74.283-74.325 42.901v85.76l-42.901 74.283 42.901 74.304v85.824l74.325 42.944 42.923 74.219h85.867l74.24 42.923 74.325-42.923h85.867l42.88-74.219 74.347-42.944v-85.803l42.88-74.325-42.837-74.283zM405.056 298.667v-269.205l89.387 89.387c0.683 1.003 1.131 2.155 2.027 3.072 4.203 4.181 9.749 6.123 15.253 5.995 5.504 0.128 11.051-1.813 15.253-5.995 0.896-0.917 1.323-2.069 2.027-3.072l89.387-89.387v269.205c0 0.021 0.021 0.064 0.021 0.085h-32.363l-74.325-42.944-74.24 42.944h-32.448c0-0.021 0.021-0.064 0.021-0.085zM746.389 638.891v72.597l-62.891 36.331-36.245 62.784h-72.661l-62.827 36.288-62.784-36.288h-72.661l-36.288-62.763-62.912-36.331v-72.619l-36.288-62.912 36.288-62.869v-72.533l62.912-36.309 36.288-62.827h72.64l62.784-36.288 62.827 36.288h72.64l36.245 62.827 62.912 36.309v72.512l36.267 62.891-36.245 62.912z" />
<glyph unicode="&#xe916;" glyph-name="view-4" data-tags="view-4" horiz-adv-x="2048" d="M267.13 716.058h311.652v-578.783h-311.652v578.783zM667.826 716.058h311.652v-578.783h-311.652v578.783zM1068.522 716.058h311.652v-578.783h-311.652v578.783zM1469.217 716.058h311.652v-578.783h-311.652v578.783zM1914.435 48.232h-1780.87v756.87h1780.87v-756.87zM178.087 92.754h1691.826v667.826h-1691.826v-667.826z" />
<glyph unicode="&#xe917;" glyph-name="t-shirt" data-tags="t-shirt, team, group" d="M1000 732.651l-160 128c-11.36 9.088-25.504 14.016-40 14.016h-576c-14.528 0-28.64-4.928-40-14.016l-160-128c-20.928-16.768-29.184-44.8-20.704-70.24l64-192c6.304-18.912 21.088-33.824 39.968-40.288 6.72-2.304 13.76-3.456 20.736-3.456 11.136 0 22.176 2.912 32 8.576v-392.576c0-35.328 28.672-64 64-64h576c35.328 0 64 28.672 64 64v392.576c9.824-5.664 20.864-8.576 32-8.576 7.008 0 14.016 1.152 20.736 3.456 18.88 6.464 33.632 21.376 39.936 40.288l64 192c8.512 25.44 0.256 53.472-20.672 70.24zM632.128 810.667c-17.696-37.152-64.576-64-120.128-64s-102.464 26.848-120.128 64h240.256zM896 490.667l-96 64v-512h-576v512l-96-64-64 192 160 128h133.664c17.824-55.104 79.872-96 154.336-96 74.432 0 136.512 40.896 154.304 96h133.696l160-128-64-192z" />
<glyph unicode="&#xe918;" glyph-name="mail-envelope" data-tags="mail-envelope-closed" d="M170.080 641.902l247.52-215.235-247.581-215.287c-6.206 5.878-10.019 14.235-10.019 23.507v383.562c0 9.253 3.874 17.582 10.080 23.454zM885.981 641.954c6.206-5.878 10.019-14.235 10.019-23.507v-383.562c0-9.252-3.874-17.582-10.080-23.454l-247.52 215.235 247.581 215.287zM614.459 405.848l233.541-203.181h-640l233.541 203.181 86.459-75.181 86.459 75.181zM192.115 682.667c-35.41 0-64.115-28.624-64.115-63.81v-384.38c0-35.241 28.472-63.81 64.115-63.81h671.77c35.41 0 64.115 28.624 64.115 63.81v384.38c0 35.241-28.472 63.81-64.115 63.81h-671.77zM528 372.267l-320 278.4h640l-320-278.4z" />
<glyph unicode="&#xe919;" glyph-name="angle-right" data-tags="chevron-thin-right" d="M678.4 426.667l-365.619 379.904c-13.722 13.824-13.722 36.198 0 50.125 13.722 13.824 35.891 13.824 49.613 0l400.896-404.89c13.722-13.875 13.722-36.301 0-50.125l-400.896-404.89c-13.722-13.875-35.891-13.824-49.613 0-13.722 13.773-13.722 36.198 0 50.125l365.619 379.75z" />
<glyph unicode="&#xe91a;" glyph-name="repeat" data-tags="loop, repeat, player, reload, refresh, update, synchronize, arrows" d="M889.68 772.347c-93.608 102.216-228.154 166.32-377.68 166.32-282.77 0-512-229.23-512-512h96c0 229.75 186.25 416 416 416 123.020 0 233.542-53.418 309.696-138.306l-149.696-149.694h352v352l-134.32-134.32zM928 426.667c0-229.75-186.25-416-416-416-123.020 0-233.542 53.418-309.694 138.306l149.694 149.694h-352v-352l134.32 134.32c93.608-102.216 228.154-166.32 377.68-166.32 282.77 0 512 229.23 512 512h-96z" />
<glyph unicode="&#xe91b;" glyph-name="return" data-tags="return" d="M21 405.667c-5.6 0-11 2.2-15.2 6.4-8 8.4-7.8 21.8 0.6 29.8l383 370c8.4 8 21.8 7.8 29.8-0.6s7.8-21.8-0.6-29.8l-383-370c-4-4-9.2-5.8-14.6-5.8zM404 35.467c-5.2 0-10.6 2-14.6 6l-383 370c-6.2 6-8.2 15.2-4.8 23 3.2 8 11 13.2 19.6 13.2h637.6c201.4 0 365.4-163.8 365.4-365.4v-25.6c0-11.6-9.4-21-21-21s-21 9.4-21 21v25.8c0 178.2-145 323.2-323.2 323.2h-585.8l345.4-333.8c8.4-8 8.6-21.4 0.6-29.8-4.2-4.4-9.6-6.6-15.2-6.6z" />
<glyph unicode="&#xe91c;" glyph-name="gift2" data-tags="gift" d="M840.408 447.147h-656.208c-23.032 0-41.768 18.728-41.768 41.752v125.088c0 23.024 18.736 41.76 41.768 41.76h656.2c23.024 0 41.752-18.736 41.752-41.76v-125.096c0.008-23.016-18.72-41.744-41.744-41.744zM184.2 623.747c-5.296 0-9.768-4.472-9.768-9.76v-125.096c0-5.376 4.384-9.752 9.768-9.752h656.2c5.376 0 9.752 4.376 9.752 9.752v125.096c0 5.296-4.472 9.76-9.752 9.76h-656.2zM748.896 18.619h-473.216c-44.336 0-80.408 36.064-80.408 80.408v364.12c0 8.832 7.168 16 16 16s16-7.168 16-16v-364.12c0-26.696 21.72-48.408 48.408-48.408h473.216c26.68 0 48.392 21.712 48.392 48.408v364.12c0 8.832 7.168 16 16 16s16-7.168 16-16v-364.12c0-44.344-36.064-80.408-80.392-80.408zM512.296 18.619c-8.832 0-16 7.16-16 16v428.528c0 8.832 7.168 16 16 16s16-7.168 16-16v-428.52c0-8.848-7.16-16.008-16-16.008zM312.6 623.803c-50.080 27.136-68.768 89.952-41.656 140.040 27.096 50.064 89.904 68.76 140.008 41.672 76.328-41.344 117.544-156.688 119.256-161.576l-30.184-10.616c-0.384 1.088-38.888 108.616-104.296 144.048-34.6 18.704-77.944 5.792-96.64-28.76-18.712-34.584-5.816-77.944 28.768-96.672l-15.256-28.136zM711.96 623.803l-15.232 28.144c16.76 9.080 28.976 24.128 34.416 42.376 5.432 18.256 3.424 37.536-5.656 54.28-9.056 16.76-24.096 28.968-42.344 34.4-18.256 5.432-37.52 3.432-54.272-5.632-65.408-35.424-103.912-142.952-104.296-144.040l-30.184 10.616c1.712 4.888 42.92 120.232 119.248 161.568 24.256 13.136 52.2 16.032 78.632 8.16 26.456-7.864 48.24-25.568 61.368-49.832 13.144-24.256 16.048-52.184 8.176-78.64-7.88-26.448-25.584-48.248-49.856-61.4zM813.288 232.875h-602.016c-8.832 0-16 7.168-16 16s7.168 16 16 16h602.016c8.832 0 16-7.168 16-16s-7.16-16-16-16z" />
<glyph unicode="&#xe91d;" glyph-name="circle-dollar" data-tags="circle-dollar" d="M512.040 25.587h-0.032c-221.128 0-401.032 179.896-401.048 401.024 0 221.136 179.896 401.032 401.032 401.032s401.032-179.904 401.032-401.032c0-221.12-179.88-401.024-400.984-401.024zM511.992 795.651c-203.488 0-369.032-165.544-369.032-369.032 0.016-203.488 165.568-369.032 369.048-369.032h0.032c203.464 0 368.984 165.544 368.984 369.032s-165.544 369.032-369.032 369.032zM515.824 198.011c-71.592 0-129.84 54.8-129.84 122.144 0 8.832 7.168 16 16 16s16-7.168 16-16c0-49.704 43.888-90.144 97.84-90.144 53.944 0 97.832 40.44 97.832 90.144s-43.88 90.144-97.832 90.144c-71.592 0-129.84 54.792-129.84 122.144 0 67.344 58.248 122.136 129.84 122.136 38.488 0 74.736-15.904 99.472-43.64 5.88-6.6 5.304-16.712-1.288-22.592s-16.72-5.296-22.584 1.288c-18.672 20.936-46.224 32.944-75.592 32.944-53.952 0-97.84-40.432-97.84-90.136s43.888-90.144 97.84-90.144c71.584 0 129.832-54.8 129.832-122.144s-58.256-122.144-129.84-122.144zM512.256 139.931c-8.832 0-16 7.168-16 16v540.72c0 8.832 7.168 16 16 16s16-7.168 16-16v-540.72c0-8.832-7.16-16-16-16z" />
<glyph unicode="&#xe91e;" glyph-name="pencil" data-tags="pencil" horiz-adv-x="896" d="M704 874.667l-128-128 192-192 128 128-192 192zM0 170.667l0.688-192.562 191.312 0.562 512 512-192 192-512-512zM192 42.667h-128v128h64v-64h64v-64z" />
<glyph unicode="&#xe91f;" glyph-name="zoomin" data-tags="zoom in, magnifier, enlarge" d="M995.828-57.161c-37.566-37.562-98.452-37.562-136.016 0l-169.726 169.728c-69.778-44.732-152.262-71.436-241.32-71.436-247.83 0-448.766 200.908-448.766 448.768s200.936 448.768 448.766 448.768c247.862 0 448.768-200.906 448.768-448.768 0-89.058-26.704-171.542-71.436-241.35l169.728-169.696c37.564-37.564 37.564-98.448 0.002-136.014zM448.766 810.447c-177.022 0-320.548-143.526-320.548-320.548 0-177.052 143.526-320.548 320.548-320.548 177.054 0 320.548 143.496 320.548 320.548 0 177.022-143.494 320.548-320.548 320.548zM512.876 297.571h-128.218v128.218h-128.218v128.218h128.218v128.22h128.218v-128.22h128.22v-128.218h-128.22v-128.218z" />
<glyph unicode="&#xe920;" glyph-name="play" data-tags="play, media control, video, movie" d="M512-85.333c-282.75 0-512 229.25-512 512 0 282.782 229.25 512 512 512s512-229.218 512-512c0-282.75-229.25-512-512-512zM512 810.667c-212.062 0-384-171.938-384-384s171.938-384 384-384 384 171.938 384 384-171.938 384-384 384zM384 618.667l320-192-320-192v384z" />
<glyph unicode="&#xe921;" glyph-name="angle-down" data-tags="chevron-thin-down" d="M891.802 625.886c13.926 13.722 36.301 13.722 50.125 0s13.875-35.891 0-49.613l-404.89-400.896c-13.824-13.722-36.198-13.722-50.125 0l-404.89 400.896c-13.824 13.722-13.824 35.891 0 49.613 13.875 13.722 36.301 13.722 50.125 0l379.853-365.619 379.802 365.619z" />
<glyph unicode="&#xe922;" glyph-name="angle-left" data-tags="chevron-thin-left" d="M711.219 46.865c13.722-13.926 13.722-36.301 0-50.125s-35.891-13.875-49.613 0l-400.896 404.89c-13.722 13.824-13.722 36.198 0 50.125l400.896 404.89c13.722 13.824 35.891 13.824 49.613 0 13.722-13.875 13.722-36.301 0-50.125l-365.619-379.853 365.619-379.802z" />
<glyph unicode="&#xe923;" glyph-name="angle-up" data-tags="chevron-thin-up" d="M132.198 227.448c-13.926-13.722-36.301-13.722-50.125 0s-13.875 35.891 0 49.613l404.89 400.896c13.824 13.722 36.198 13.722 50.125 0l404.89-400.896c13.824-13.722 13.824-35.891 0-49.613-13.875-13.722-36.301-13.722-50.074 0l-379.904 365.619-379.802-365.619z" />
<glyph unicode="&#xe924;" glyph-name="star" data-tags="star" d="M512 202.667l-264-160 70 300-232 202 306 26 120 282 120-282 306-26-232-202 70-300z" />
<glyph unicode="&#xe925;" glyph-name="star-border" data-tags="star_border" d="M512 280.667l160-96-42 182 142 124-188 16-72 172-72-172-188-16 142-124-42-182zM938 544.667l-232-202 70-300-264 160-264-160 70 300-232 202 306 26 120 282 120-282z" />
<glyph unicode="&#xe926;" glyph-name="view-3" data-tags="view-3" horiz-adv-x="1647" d="M267.665 716.058h311.652v-578.783h-311.652v578.783zM668.36 716.058h311.652v-578.783h-311.652v578.783zM1069.056 716.058h311.652v-578.783h-311.652v578.783zM1513.739 48.232h-1380.174v756.87h1380.174v-756.87zM178.087 92.754h1291.13v667.826h-1291.13v-667.826z" />
<glyph unicode="&#xe927;" glyph-name="grid-view" data-tags="grid-view" d="M102.4 836.267h204.8v-204.8h-204.8v204.8zM409.6 836.267h204.8v-204.8h-204.8v204.8zM716.8 836.267h204.8v-204.8h-204.8v204.8zM102.4 526.917h204.8v-204.8h-204.8v204.8zM409.6 526.917h204.8v-204.8h-204.8v204.8zM716.749 529.067h204.8v-204.8h-204.8v204.8zM102.4 219.717h204.8v-204.8h-204.8v204.8zM409.6 219.768h204.8v-204.851h-204.8v204.851zM716.698 221.867h204.8v-204.8h-204.8v204.8z" />
<glyph unicode="&#xe928;" glyph-name="row-view" data-tags="row-view" d="M102.4 836.267h204.8v-204.8h-204.8v204.8zM409.6 836.267h514.15v-204.8h-514.15v204.8zM102.4 526.917h204.8v-204.8h-204.8v204.8zM409.6 526.917h514.15v-204.8h-514.15v204.8zM102.4 219.717h204.8v-204.8h-204.8v204.8zM409.6 219.768h514.15v-204.851h-514.15v204.851z" />
<glyph unicode="&#xe929;" glyph-name="arrow-right" data-tags="arrow-right" d="M597.333 768q18 0 30.333-12.333l298.667-298.667q12.333-12.333 12.333-30.333t-12.333-30.333l-298.667-298.667q-12.333-12.333-30.333-12.333-18.333 0-30.5 12.167t-12.167 30.5q0 18 12.333 30.333l226 225.667h-665q-17.667 0-30.167 12.5t-12.5 30.167 12.5 30.167 30.167 12.5h665l-226 225.667q-12.333 12.333-12.333 30.333 0 18.333 12.167 30.5t30.5 12.167z" />
<glyph unicode="&#xe92a;" glyph-name="arrow-left" data-tags="arrow-left" d="M426.667 768q17.667 0 30.167-12.5t12.5-30.167q0-18-12.667-30.333l-225.667-225.667h665q17.667 0 30.167-12.5t12.5-30.167-12.5-30.167-30.167-12.5h-665l225.667-225.667q12.667-12.333 12.667-30.333 0-17.667-12.5-30.167t-30.167-12.5q-18 0-30.333 12.333l-298.667 298.667q-12.333 13-12.333 30.333t12.333 30.333l298.667 298.667q12.667 12.333 30.333 12.333z" />
<glyph unicode="&#xe92b;" glyph-name="arrow-down" data-tags="arrow-down" d="M512 853.334q17.667 0 30.167-12.5t12.5-30.167v-665l225.667 226q12.333 12.333 30.333 12.333 18.333 0 30.5-12.167t12.167-30.5q0-18-12.333-30.333l-298.667-298.667q-12.333-12.333-30.333-12.333t-30.333 12.333l-298.667 298.667q-12.333 12.333-12.333 30.333 0 18.333 12.167 30.5t30.5 12.167q18 0 30.333-12.333l225.667-226v665q0 17.667 12.5 30.167t30.167 12.5z" />
<glyph unicode="&#xe92c;" glyph-name="arrow-up" data-tags="arrow-up" d="M512 853.334q18 0 30.333-12.333l298.667-298.667q12.333-12.333 12.333-30.333 0-18.333-12.167-30.5t-30.5-12.167q-18 0-30.333 12.333l-225.667 226v-665q0-17.667-12.5-30.167t-30.167-12.5-30.167 12.5-12.5 30.167v665l-225.667-226q-12.333-12.333-30.333-12.333-18.333 0-30.5 12.167t-12.167 30.5q0 18 12.333 30.333l298.667 298.667q12.333 12.333 30.333 12.333z" />
<glyph unicode="&#xe92d;" glyph-name="view-1" data-tags="view-1" horiz-adv-x="890" d="M192.913 92.754h505.945v667.826h-505.945v-667.826zM730.913 48.232h-571.392v756.87h571.347v-756.87zM293.665 716.058h311.652v-578.783h-311.652v578.783z" />
<glyph unicode="&#xe92e;" glyph-name="view-2" data-tags="view-2" horiz-adv-x="1202" d="M1088.824 48.232h-975.56v756.87h975.56v-756.87zM157.785 92.754h890.346v667.826h-890.346v-667.826zM247.363 716.058h311.652v-578.783h-311.652v578.783zM648.058 716.058h311.652v-578.783h-311.652v578.783z" />
<glyph unicode="&#xe92f;" glyph-name="pause" data-tags="pause, media control" d="M352 938.667h-192c-17.696 0-32-14.336-32-32v-960c0-17.696 14.304-32 32-32h192c17.696 0 32 14.304 32 32v960c0 17.664-14.304 32-32 32zM864 938.667h-192c-17.696 0-32-14.336-32-32v-960c0-17.696 14.304-32 32-32h192c17.696 0 32 14.304 32 32v960c0 17.664-14.304 32-32 32z" />
<glyph unicode="&#xe930;" glyph-name="person2" data-tags="if_account_friend_human_man_member_person_profile_user_users_392531" d="M702.304 416.043c40.704 45.344 65.696 105.056 65.696 170.624 0 141.152-114.848 256-256 256s-256-114.848-256-256 114.848-256 256-256c49.76 0 96.096 14.496 135.456 39.168 139.2-52.448 235.040-179.84 247.232-327.168h-765.344c8.288 99.168 54.816 191.648 130.496 257.632 13.344 11.616 14.72 31.808 3.104 45.152-11.584 13.312-31.808 14.72-45.152 3.104-97.76-85.184-153.792-208.32-153.792-337.888 0-17.696 14.336-32 32-32h832c17.696 0 32 14.304 32 32 0 175.552-101.76 332.32-257.696 405.376zM320 586.667c0 105.888 86.112 192 192 192s192-86.112 192-192-86.112-192-192-192-192 86.112-192 192z" />
<glyph unicode="&#xe931;" glyph-name="facebook" data-tags="facebook, facebook-f" horiz-adv-x="602" d="M548 931.81v-150.857h-89.714c-70.286 0-83.429-33.714-83.429-82.286v-108h167.429l-22.286-169.143h-145.143v-433.714h-174.857v433.714h-145.714v169.143h145.714v124.571c0 144.571 88.571 223.429 217.714 223.429 61.714 0 114.857-4.571 130.286-6.857z" />
<glyph unicode="&#xe932;" glyph-name="skype" data-tags="skype-logo" d="M981.245 352.54c3.821 24.176 5.833 48.909 5.833 74.154 0 262.39-212.698 475.083-475.095 475.083-25.178 0-49.983-2.074-74.138-5.852-43.755 27.073-95.398 42.741-150.742 42.741-158.553 0-287.090-128.52-287.090-287.090 0-55.333 15.677-106.932 42.739-150.775-3.745-24.217-5.807-48.871-5.807-74.116 0-262.409 212.693-475.038 475.029-475.038 25.2 0 50.012 1.943 74.164 5.754 43.8-27.021 95.4-42.731 150.733-42.731 158.596 0 287.119 128.554 287.119 287.119 0.012 55.354-15.656 106.942-42.743 150.752zM737.548 210.621c-20.098-28.933-49.621-51.542-88.198-67.8-38.656-16.301-84.344-24.412-137.105-24.412-63.237 0-115.593 11.066-156.92 33.411-29.295 16.001-53.121 37.465-71.438 64.232-18.355 26.788-27.662 53.021-27.662 78.599 0 15.089 5.754 28.211 16.955 38.91 11.318 10.777 25.895 16.179 43.1 16.179 14.094 0 26.2-4.245 36.056-12.656 9.782-8.409 17.989-20.634 24.7-36.765 8.044-18.689 16.782-34.311 26.078-46.776 9.24-12.311 22.243-22.588 39.084-30.633 16.655-8.066 38.822-12.099 66.56-12.099 37.96 0 68.638 8.211 92.117 24.409 23.598 16.346 34.932 36.234 34.932 60.265 0 19.167-6.111 34.389-18.643 46.257-12.646 12.023-28.978 21.179-49.245 27.566-20.346 6.454-47.662 13.299-81.894 20.51-45.967 10.032-84.411 21.71-115.543 35.12-31.173 13.461-55.999 31.861-74.4 55.104-18.439 23.471-27.633 52.645-27.633 87.198 0 32.949 9.706 62.415 29.138 88.060 19.422 25.716 47.521 45.4 84.161 59.111 36.511 13.706 79.494 20.562 128.737 20.562 39.379 0 73.443-4.557 102.275-13.622 28.754-9.132 52.723-21.184 71.888-36.306 19.043-15.089 33.056-31.004 41.932-47.705 8.868-16.751 13.334-33.111 13.334-49.076 0-14.844-5.754-28.307-16.967-40.106-11.211-11.815-25.552-17.839-42.301-17.784-15.098 0-26.943 3.483-35.156 10.856-7.999 7.133-16.401 18.489-25.488 34.316-11.487 22.084-25.245 39.289-41.243 51.595-15.577 12.077-41.277 18.365-77.038 18.289-33.087 0-59.561-6.761-79.542-19.984-20.105-13.434-29.716-29.021-29.761-47.283 0.033-11.444 3.323-21.093 9.944-29.345 6.723-8.328 16.077-15.544 28.1-21.626 12.027-6.178 24.262-10.956 36.556-14.394 12.439-3.526 33.078-8.623 61.765-15.372 35.977-7.754 68.61-16.417 97.933-25.859 29.266-9.49 54.242-20.934 74.876-34.568 20.798-13.594 37.053-30.925 48.657-51.859 11.687-20.967 17.508-46.576 17.508-76.711 0.045-36.287-10.063-68.922-30.209-97.809z" />
<glyph unicode="&#xe933;" glyph-name="twitter" data-tags="twitter-black-shape" d="M1024 743.731c-40.286-17.328-80.581-28.149-120.848-32.496 45.481 27.289 76.245 65.841 92.274 115.653-41.603-24.685-85.995-41.574-133.206-50.675-41.588 44.182-92.692 66.282-153.349 66.282-58.037 0-107.521-20.464-148.472-61.4-40.928-40.934-61.394-90.419-61.394-148.46 0-15.591 1.73-31.624 5.198-48.083-85.77 4.331-166.227 25.88-241.387 64.648-75.155 38.772-138.939 90.428-191.35 154.967-19.060-32.48-28.593-67.789-28.593-105.906 0-35.953 8.445-69.311 25.348-100.066 16.891-30.75 39.637-55.654 68.228-74.716-33.793 1.302-65.413 10.184-94.864 26.645v-2.599c0-50.684 15.919-95.182 47.753-133.529 31.838-38.342 72.017-62.477 120.527-72.445-18.195-4.759-36.608-7.141-55.231-7.141-12.13 0-25.343 1.081-39.635 3.232 13.427-42.009 38.119-76.541 74.067-103.628 35.955-27.073 76.673-41.028 122.157-41.915-76.234-59.766-163.082-89.65-260.545-89.65-18.63 0-35.518 0.849-50.682 2.592 97.465-62.802 204.888-94.204 322.277-94.204 74.504 0 144.462 11.791 209.849 35.404 65.42 23.598 121.292 55.226 167.645 94.868 46.339 39.633 86.309 85.223 119.874 136.767 33.568 51.549 58.574 105.364 75.048 161.457 16.454 56.105 24.688 112.296 24.688 168.617 0 12.13-0.218 21.222-0.653 27.289 41.162 29.874 76.248 66.050 105.273 108.491z" />
<glyph unicode="&#xe934;" glyph-name="vimeo" data-tags="vimeo" d="M1019.645 703.897c7.639 42.875 7.468 86.962-19.012 120.303-36.946 46.749-115.586 48.469-169.459 40.219-43.827-6.7-192.065-72.103-242.508-228.68 89.368 6.793 136.206-6.441 127.608-104.834-3.601-41.168-24.399-86.269-47.606-129.506-26.819-49.845-77.084-147.719-142.999-77.169-59.372 63.495-54.914 184.932-68.489 265.801-7.561 45.37-15.555 101.912-30.42 148.579-12.81 40.131-42.186 88.515-78.111 99.001-38.584 11.339-86.289-6.359-114.303-22.863-89.204-52.419-157.188-127.007-234.347-188.54v0c12.561-26.911 19.412-44.346 41.926-47.613 53.115-7.823 103.735 49.5 139.046-10.141 21.484-36.437 28.194-76.394 41.94-115.682 18.388-52.32 32.567-109.295 47.606-169.459 25.436-101.912 56.723-254.192 144.808-291.493 44.94-19.084 112.494 6.448 146.695 26.73 92.638 54.822 164.827 134.308 226.615 215.177 141.275 191.39 219.222 408.205 231.008 470.168z" />
<glyph unicode="&#xe935;" glyph-name="youtube" data-tags="youtube-logo" d="M807.128 189.645h-56.195l0.262 32.643c0 14.507 11.913 26.374 26.465 26.374h3.584c14.586 0 26.533-11.867 26.533-26.374l-0.649-32.643zM596.343 259.596c-14.256 0-25.919-9.58-25.919-21.311v-158.754c0-11.708 11.662-21.265 25.919-21.265 14.313 0 25.987 9.557 25.987 21.265v158.754c0 11.742-11.674 21.311-25.987 21.311zM938.667 348.399v-302.012c0-72.442-62.817-131.721-139.605-131.721h-574.111c-76.811 0-139.617 59.278-139.617 131.721v302.012c0 72.442 62.805 131.732 139.617 131.732h574.111c76.789 0 139.605-59.29 139.605-131.732zM263.248 13.597l-0.046 318.134 71.168-0.023v47.138l-189.713 0.284v-46.342l59.221-0.171v-319.022h59.369zM476.581 284.342h-59.335v-169.882c0-24.576 1.49-36.864-0.091-41.199-4.824-13.175-26.51-27.17-34.964-1.422-1.434 4.506-0.171 18.102-0.193 41.449l-0.239 171.054h-59.005l0.182-168.368c0.046-25.805-0.58-45.045 0.205-53.806 1.445-15.44 0.933-33.439 15.258-43.725 26.692-19.228 77.858 2.867 90.658 30.356l-0.114-35.078 47.65-0.057-0.011 270.677zM666.396 89.805l-0.125 141.392c-0.046 53.885-40.357 86.153-95.073 42.553l0.239 105.119-59.267-0.091-0.284-362.837 48.742 0.705 4.437 22.596c62.271-57.128 101.422-17.977 101.33 50.563zM852.093 108.544l-44.487-0.239c-0.023-1.764-0.091-3.8-0.114-6.019v-24.826c0-13.289-10.98-24.11-24.314-24.11h-8.715c-13.358 0-24.337 10.82-24.337 24.11v65.297h101.877v38.343c0 28.023-0.717 56.036-3.038 72.055-7.293 50.677-78.427 58.721-114.358 32.779-11.275-8.101-19.888-18.944-24.895-33.508-5.052-14.575-7.566-34.486-7.566-59.779v-84.309c0.023-140.151 170.257-120.343 149.948 0.205zM623.878 566.25c3.061-7.441 7.817-13.471 14.268-18.022 6.372-4.483 14.518-6.736 24.28-6.736 8.556 0 16.134 2.31 22.733 7.077 6.576 4.745 12.117 11.833 16.646 21.288l-1.126-23.279h66.139v281.27h-52.065v-218.908c0-11.856-9.762-21.561-21.697-21.561-11.867 0-21.663 9.705-21.663 21.561v218.908h-54.34v-189.713c0-24.166 0.444-40.277 1.161-48.447 0.74-8.112 2.606-15.895 5.666-23.438zM423.447 725.106c0 26.999 2.253 48.082 6.724 63.283 4.506 15.144 12.595 27.318 24.314 36.5 11.685 9.227 26.647 13.847 44.84 13.847 15.303 0 28.41-3.004 39.356-8.886 11.002-5.916 19.49-13.596 25.372-23.074 5.996-9.512 10.069-19.285 12.242-29.286 2.219-10.138 3.311-25.429 3.311-46.057v-71.134c0-26.089-1.047-45.284-3.083-57.469-2.014-12.22-6.337-23.552-13.039-34.179-6.599-10.513-15.121-18.375-25.452-23.393-10.445-5.063-22.391-7.543-35.886-7.543-15.076 0-27.773 2.082-38.241 6.428-10.502 4.324-18.614 10.843-24.394 19.502-5.837 8.67-9.944 19.228-12.425 31.539-2.492 12.299-3.675 30.8-3.675 55.455l0.034 74.468zM475.25 613.376c0-15.929 11.856-28.934 26.294-28.934 14.45 0 26.26 13.005 26.26 28.934v149.732c0 15.906-11.81 28.911-26.26 28.911-14.438 0-26.294-13.005-26.294-28.911v-149.732zM292.204 537.771h62.396l0.068 215.723 73.728 184.798h-68.244l-39.196-137.262-39.754 137.637h-67.538l78.438-185.276 0.102-215.62z" />
<glyph unicode="&#xe936;" glyph-name="mail" data-tags="mail, email, letter, envelope, contact" d="M896 778.667h-768c-70.688 0-128-57.344-128-128v-416c0-70.688 57.312-128 128-128h768c70.688 0 128 57.312 128 128v416c0 70.656-57.312 128-128 128zM64 610.667l223.968-168-223.968-168v336zM960 234.667c0-35.328-28.736-64-64-64h-768c-35.296 0-64 28.672-64 64l250.624 188 139.776-104.864c17.056-12.736 37.312-19.2 57.6-19.2 20.256 0 40.512 6.432 57.568 19.2l139.808 104.864 250.624-188zM960 274.667l-224 168 224 168v-336zM550.368 343.403c-11.168-8.384-24.416-12.8-38.368-12.8s-27.232 4.448-38.4 12.8l-409.6 307.264c0 35.296 28.704 64 64 64h768c35.264 0 64-28.704 64-64l-409.632-307.264z" />
<glyph unicode="&#xe937;" glyph-name="clock" data-tags="time, clock" d="M512 826.667c-229.792 0-416-186.24-416-416s186.208-416 416-416c229.728 0 416 186.24 416 416s-186.24 416-416 416zM508.64 73.803c-185.568 0-336 150.432-336 336s150.432 336 336 336c185.536 0 336-150.432 336-336s-150.464-336-336-336zM605.76 390.475h-95.36v161.024c0 17.472-14.176 31.68-31.648 31.68-17.504 0-31.68-14.176-31.68-31.68v-192.672c0-17.504 14.176-31.648 31.68-31.648h127.008c17.504 0 31.68 14.144 31.68 31.648 0 17.472-14.176 31.648-31.68 31.648z" />
<glyph unicode="&#xe938;" glyph-name="linkedin" data-tags="linkedin" d="M256 785.067c0-54.374-36.352-101.171-102.451-101.171-62.208 0-102.349 44.134-102.349 98.509 0 55.808 38.912 105.062 102.4 105.062s101.171-46.592 102.4-102.4zM51.2-34.133v665.6h204.8v-665.6h-204.8zM358.4 403.934c0 79.104-2.611 145.203-5.222 202.291h184.013l9.114-88.218h3.891c25.907 41.523 89.395 102.4 195.686 102.4 129.638 0 226.918-86.784 226.918-273.51v-381.030h-204.8v351.283c0 81.613-31.078 143.872-102.4 143.872-54.374 0-81.613-44.032-95.898-80.333-5.222-13.005-6.502-31.13-6.502-49.306v-365.517h-204.8v438.067z" />
<glyph unicode="&#xe939;" glyph-name="pinterest" data-tags="pinterest" d="M441.19 261.445c-26.931-141.005-59.75-276.173-157.082-346.778-30.003 213.094 44.083 373.094 78.541 542.976-58.726 98.816 7.066 297.574 130.816 248.576 152.32-60.211-131.891-367.206 58.88-405.606 199.219-39.987 280.525 345.6 156.979 470.989-178.432 181.146-519.475 4.25-477.491-255.078 10.189-63.386 75.674-82.586 26.163-170.086-114.227 25.293-148.326 115.405-143.923 235.52 7.066 196.608 176.589 334.182 346.675 353.28 215.091 24.115 416.973-79.002 444.877-281.293 31.386-228.403-97.075-475.802-327.117-457.984-62.362 4.864-88.474 35.789-137.318 65.485z" />
<glyph unicode="&#xe93a;" glyph-name="google" data-tags="google" d="M101.837 652.51c0-76.493 25.549-131.686 75.878-164.096 41.267-26.624 89.088-30.618 113.971-30.618 6.042 0 10.906 0.307 14.285 0.512 0 0-7.885-51.405 30.208-102.195h-1.741c-65.997 0-281.242-13.773-281.242-190.822 0-180.019 197.683-189.184 237.363-189.184 3.123 0 4.966 0.102 4.966 0.102 0.41 0 3.226-0.102 8.090-0.102 25.446 0 91.238 3.174 152.32 32.922 79.258 38.4 119.45 105.421 119.45 198.912 0 90.317-61.235 144.077-105.933 183.398-27.29 24.013-50.893 44.698-50.893 64.819 0 20.48 17.254 35.891 39.014 55.398 35.277 31.488 68.557 76.39 68.557 161.28 0 74.598-9.677 124.723-69.325 156.518 6.195 3.174 28.211 5.478 39.066 7.014 32.307 4.403 79.565 9.421 79.565 35.789v5.069h-235.469c-2.355-0.102-238.131-8.806-238.131-224.717zM481.946 191.045c4.506-71.987-57.088-125.082-149.606-131.789-93.952-6.912-171.264 35.379-175.77 107.315-2.202 34.611 13.005 68.403 42.752 95.386 30.157 27.29 71.578 44.186 116.634 47.514 5.325 0.307 10.598 0.614 15.872 0.614 86.989-0.051 145.869-51.149 150.118-119.040zM420.454 701.816c23.091-81.306-11.776-166.195-67.379-181.914-6.4-1.792-12.954-2.662-19.661-2.662-50.893 0-101.325 51.507-120.064 122.522-10.445 39.731-9.574 74.65 2.406 108.134 11.725 33.024 32.922 55.194 59.546 62.72 6.4 1.792 13.005 2.714 19.712 2.714 61.44 0 100.966-25.498 125.44-111.514zM819.2 529.067v153.6h-102.4v-153.6h-153.6v-102.4h153.6v-153.6h102.4v153.6h153.6v102.4h-153.6z" />
<glyph unicode="&#xe93b;" glyph-name="sad-face" data-tags="sad-face" d="M528 10.667v0c-220.914 0-400 179.086-400 400s179.086 400 400 400c220.914 0 400-179.086 400-400s-179.086-400-400-400zM528 42.667c203.241 0 368 164.759 368 368s-164.759 368-368 368c-203.241 0-368-164.759-368-368s164.759-368 368-368v0zM527.402 266.667c-111.402 0-175.402-64-175.402-64v32c0 0 64 64 175.402 64s176.598-64 176.598-64v-32c0 0-65.195 64-176.598 64v0zM659.889 619.72l106.117-71.577-17.894-26.529-106.117 71.577 17.894 26.529zM289.995 548.143l106.117 71.577 17.894-26.529-106.117-71.577-17.894 26.529zM384 458.667c17.673 0 32 14.327 32 32s-14.327 32-32 32c-17.673 0-32-14.327-32-32s14.327-32 32-32v0zM672 458.667c17.673 0 32 14.327 32 32s-14.327 32-32 32c-17.673 0-32-14.327-32-32s14.327-32 32-32v0z" />
<glyph unicode="&#xe93c;" glyph-name="person" data-tags="lnr-user" d="M486.4 375.467c-155.29 0-281.6 126.31-281.6 281.6s126.31 281.6 281.6 281.6 281.6-126.31 281.6-281.6-126.31-281.6-281.6-281.6zM486.4 887.467c-127.027 0-230.4-103.373-230.4-230.4s103.373-230.4 230.4-230.4c127.027 0 230.4 103.373 230.4 230.4s-103.373 230.4-230.4 230.4zM896-85.333h-819.2c-42.342 0-76.8 34.458-76.8 76.8 0 3.482 0.717 86.272 62.72 168.96 36.096 48.128 85.504 86.374 146.893 113.613 74.957 33.331 168.090 50.227 276.787 50.227s201.83-16.896 276.787-50.227c61.389-27.29 110.797-65.485 146.893-113.613 62.003-82.688 62.72-165.478 62.72-168.96 0-42.342-34.458-76.8-76.8-76.8zM486.4 273.067c-178.534 0-310.272-48.794-380.979-141.107-52.992-69.171-54.17-139.878-54.221-140.595 0-14.029 11.469-25.498 25.6-25.498h819.2c14.131 0 25.6 11.469 25.6 25.6 0 0.614-1.178 71.322-54.221 140.493-70.758 92.314-202.496 141.107-380.979 141.107z" />
<glyph unicode="&#xe93d;" glyph-name="clock3" data-tags="if_Clock02_928437" d="M669.18 325.623l-124.501 70.406v257.039c0 18.719-15.183 33.895-33.903 33.895s-33.895-15.183-33.895-33.895v-276.812c0-0.435 0.118-0.847 0.125-1.282 0.044-1.193 0.184-2.35 0.354-3.529 0.155-1.076 0.309-2.144 0.56-3.19 0.258-1.039 0.604-2.041 0.95-3.050 0.376-1.076 0.737-2.114 1.208-3.138 0.449-0.98 0.987-1.893 1.532-2.822 0.553-0.936 1.090-1.871 1.724-2.755 0.648-0.899 1.385-1.731 2.122-2.571 0.715-0.81 1.414-1.599 2.203-2.335 0.788-0.744 1.635-1.4 2.497-2.063 0.928-0.722 1.864-1.407 2.873-2.033 0.383-0.228 0.678-0.538 1.068-0.751l141.71-80.137c5.275-2.976 10.999-4.398 16.657-4.398 11.824 0 23.302 6.196 29.534 17.216 9.216 16.31 3.47 36.989-12.818 46.205zM512 889.559c-255.241 0-462.892-207.651-462.892-462.892 0-255.234 207.651-462.892 462.892-462.892 255.234 0 462.892 207.658 462.892 462.892 0 255.241-207.658 462.892-462.892 462.892zM541.468 38.674v67.532h-58.935v-67.532c-182.478 13.739-330.207 153.762-355.763 332.741h69.684v58.935h-73.581c1.901 203.017 159.98 369.274 359.66 384.309v-67.532h58.935v67.532c199.673-15.036 357.759-181.292 359.66-384.309h-69.89v-58.935h65.993c-25.556-178.979-173.277-319.002-355.763-332.741z" />
<glyph unicode="&#xe93e;" glyph-name="clock4" data-tags="if_40_2529952" d="M589.492 386.537c17.989 34.595 12.454 78.876-16.605 107.935-11.070 11.070-23.524 17.989-37.362 22.141v203.416c0 15.222-12.454 27.676-27.676 27.676s-27.676-12.454-27.676-27.676v-203.416c-13.838-4.151-26.292-12.454-37.362-22.141-17.989-17.989-27.676-40.13-27.676-65.038s9.686-47.049 26.292-65.038c17.989-17.989 41.514-26.292 65.038-26.292 15.222 0 29.059 2.768 42.897 9.686l103.784-103.784c5.535-5.535 12.454-8.303 19.373-8.303s13.838 2.768 19.373 8.303c11.070 11.070 11.070 27.676 0 38.746l-102.4 103.784zM481.557 403.143c-6.919 6.919-11.070 16.605-11.070 26.292s4.151 19.373 11.070 26.292c6.919 6.919 16.605 11.070 26.292 11.070s19.373-4.151 26.292-11.070c13.838-13.838 13.838-37.362 0-51.2-15.222-15.222-37.362-15.222-52.584-1.384zM512 897.153c-258.768 0-470.486-211.719-470.486-470.486s211.719-470.486 470.486-470.486 470.486 211.719 470.486 470.486-211.719 470.486-470.486 470.486zM512 11.532c-228.324 0-415.135 186.811-415.135 415.135s186.811 415.135 415.135 415.135 415.135-186.811 415.135-415.135-186.811-415.135-415.135-415.135z" />
<glyph unicode="&#xe93f;" glyph-name="location1" data-tags="if_Streamline-20_185040" d="M512-80.192l-17.557 25.408c-13.205 19.136-323.776 470.805-323.776 652.117 0 188.203 153.131 341.333 341.333 341.333s341.333-153.131 341.333-341.333c0-181.312-310.571-632.981-323.776-652.117l-17.557-25.408zM512 896c-164.693 0-298.667-133.973-298.667-298.667 0-144.789 232.213-502.507 298.667-601.899 66.453 99.392 298.667 457.109 298.667 601.899 0 164.693-133.973 298.667-298.667 298.667zM512 448c-82.325 0-149.333 66.987-149.333 149.333s67.008 149.333 149.333 149.333 149.333-66.987 149.333-149.333-67.008-149.333-149.333-149.333zM512 704c-58.816 0-106.667-47.851-106.667-106.667s47.851-106.667 106.667-106.667 106.667 47.851 106.667 106.667-47.851 106.667-106.667 106.667z" />
<glyph unicode="&#xe940;" glyph-name="mail-envelope1" data-tags="if_Streamline-58_185078" d="M938.667 85.334h-853.333c-47.061 0-85.333 38.272-85.333 85.333v512c0 47.061 38.272 85.333 85.333 85.333h853.333c47.061 0 85.333-38.272 85.333-85.333v-512c0-47.061-38.272-85.333-85.333-85.333zM85.333 725.334c-23.531 0-42.667-19.136-42.667-42.667v-512c0-23.531 19.136-42.667 42.667-42.667h853.333c23.531 0 42.667 19.136 42.667 42.667v512c0 23.531-19.136 42.667-42.667 42.667h-853.333zM512 315.926l-374.251 242.155c-9.899 6.421-12.736 19.605-6.336 29.504s19.605 12.715 29.504 6.336l351.083-227.179 351.083 227.179c9.899 6.379 23.104 3.563 29.504-6.336s3.563-23.083-6.336-29.504l-374.251-242.155zM128.021 213.334c-6.891 0-13.675 3.328-17.771 9.493-6.549 9.813-3.904 23.040 5.909 29.589l192 128c9.813 6.549 23.061 3.904 29.589-5.909 6.549-9.813 3.904-23.040-5.909-29.589l-192-128c-3.648-2.411-7.765-3.584-11.819-3.584zM895.979 213.334c-4.053 0-8.171 1.173-11.819 3.584l-192 128c-9.813 6.549-12.459 19.776-5.909 29.589 6.528 9.813 19.755 12.459 29.589 5.909l192-128c9.813-6.549 12.459-19.776 5.909-29.589-4.096-6.165-10.88-9.493-17.771-9.493z" />
<glyph unicode="&#xe941;" glyph-name="cross-1" data-tags="if_basics-22_296812" d="M794.624 722.603l-286.72-287.744-287.744 287.744-19.456-19.456 286.72-287.744-286.72-287.744 19.456-19.456 287.744 287.744 286.72-287.744 20.48 19.456-287.744 287.744 287.744 287.744z" />
<glyph unicode="&#xe943;" glyph-name="fancy" data-tags="fancy" d="M767.836 205.89h-175.229v-206.76c-0.002-44.512-36.086-80.602-80.606-80.602-44.518 0-80.604 36.090-80.604 80.604v206.758h-175.23c-30.97 0-56.074 25.104-56.074 56.072v364.458c0 1.186 0.105 2.348 0.177 3.513 3.747 169.001 141.824 304.873 311.73 304.873 169.908 0 307.985-135.873 311.729-304.873 0.072-1.165 0.178-2.327 0.178-3.513v-364.458c0-30.966-25.105-56.072-56.071-56.072z" />
<glyph unicode="&#xe955;" glyph-name="instagram" data-tags="instagram" d="M870.4 887.467h-716.8c-56.32 0-102.4-46.080-102.4-102.4v-716.8c0-56.371 46.080-102.4 102.4-102.4h716.8c56.32 0 102.4 46.029 102.4 102.4v716.8c0 56.32-46.080 102.4-102.4 102.4zM511.181 143.889c156.621 0 283.546 127.027 283.546 283.597 0 17.306-2.202 33.997-5.274 50.381h80.947v-369.459c0-19.558-15.872-35.328-35.482-35.328h-645.837c-19.61 0-35.482 15.77-35.482 35.328v369.459h79.309c-3.123-16.384-5.325-33.075-5.325-50.381 0-156.621 127.027-283.597 283.597-283.597zM333.978 427.486c0 97.894 79.36 177.203 177.254 177.203 97.843 0 177.254-79.309 177.254-177.203s-79.411-177.254-177.254-177.254c-97.946 0-177.254 79.36-177.254 177.254zM834.918 631.467h-82.688c-19.558 0-35.43 15.974-35.43 35.43v82.79c0 19.558 15.872 35.379 35.379 35.379h82.688c19.661 0 35.533-15.821 35.533-35.379v-82.739c0-19.507-15.872-35.482-35.482-35.482z" />
<glyph unicode="&#xe956;" glyph-name="vk" data-tags="vk" horiz-adv-x="1108" d="M1095.429 641.524q13.143-36.571-85.714-168-13.714-18.286-37.143-48.571-44.571-57.143-51.429-74.857-9.714-23.429 8-46.286 9.714-12 46.286-46.857h0.571l2.286-2.286q80.571-74.857 109.143-126.286 1.714-2.857 3.714-7.143t4-15.143-0.286-19.429-14.286-15.714-33.714-7.143l-146.286-2.286q-13.714-2.857-32 2.857t-29.714 12.571l-11.429 6.857q-17.143 12-40 36.571t-39.143 44.286-34.857 33.143-32.286 8.857q-1.714-0.571-4.571-2t-9.714-8.286-12.286-16.857-9.714-29.714-3.714-44.286q0-8.571-2-15.714t-4.286-10.571l-2.286-2.857q-10.286-10.857-30.286-12.571h-65.714q-40.571-2.286-83.429 9.429t-75.143 30.286-58.857 37.714-40.286 32.857l-14.286 13.714q-5.714 5.714-15.714 17.143t-40.857 52-60.571 86.286-70 120.571-74.571 155.429q-3.429 9.143-3.429 15.429t1.714 9.143l2.286 3.429q8.571 10.857 32.571 10.857l156.571 1.143q6.857-1.143 13.143-3.714t9.143-4.857l2.857-1.714q9.143-6.286 13.714-18.286 11.429-28.571 26.286-59.143t23.429-46.571l9.143-16.571q16.571-34.286 32-59.429t27.714-39.143 23.714-22 19.429-8 15.429 2.857q1.143 0.571 2.857 2.857t6.857 12.571 7.714 26.857 5.429 46.286 0 71.429q-1.143 22.857-5.143 41.714t-8 26.286l-3.429 6.857q-14.286 19.429-48.571 24.571-7.429 1.143 2.857 13.714 9.714 10.857 21.714 17.143 30.286 14.857 136.571 13.714 46.857-0.571 77.143-7.429 11.429-2.857 19.143-7.714t11.714-13.714 6-18.286 2-26-0.571-31.429-1.429-40.286-0.857-47.143q0-6.286-0.571-24t-0.286-27.429 2-23.143 6.571-22.286 12.857-14q4.571-1.143 9.714-2.286t14.857 6.286 21.714 19.714 29.714 38.286 38.857 61.429q34.286 59.429 61.143 128.571 2.286 5.714 5.714 10t6.286 6l2.286 1.714 2.857 1.429t7.429 1.714 11.429 0.286l164.571 1.143q22.286 2.857 36.571-1.429t17.714-9.429z" />
<glyph unicode="&#xe957;" glyph-name="tumblr" data-tags="tumblr" horiz-adv-x="624" d="M539.429 179.238l45.714-135.429c-17.143-25.714-94.857-54.857-164.571-56-207.429-3.429-285.714 147.429-285.714 253.714v310.857h-96v122.857c144 52 178.857 182.286 186.857 256.571 0.571 4.571 4.571 6.857 6.857 6.857h139.429v-242.286h190.286v-144h-190.857v-296c0-40 14.857-95.429 91.429-93.714 25.143 0.571 58.857 8 76.571 16.571z" />
<glyph unicode="&#xe958;" glyph-name="mobile" data-tags="mobile, cell-phone, handheld" d="M736 938.667h-448c-52.8 0-96-43.2-96-96v-832c0-52.8 43.2-96 96-96h448c52.8 0 96 43.2 96 96v832c0 52.8-43.2 96-96 96zM384 890.667h256v-32h-256v32zM512-21.333c-35.346 0-64 28.654-64 64s28.654 64 64 64 64-28.654 64-64-28.654-64-64-64zM768 170.667h-512v640h512v-640z" />
<glyph unicode="&#xe962;" glyph-name="snapchat" data-tags="snapchat-ghost" horiz-adv-x="951" d="M484.571 865.524c102.857 1.143 188-56.571 230.857-149.143 13.143-28 15.429-71.429 15.429-102.286 0-36.571-2.857-72.571-5.143-109.143 4.571-2.286 10.857-4 16-4 20.571 0 37.714 15.429 58.286 15.429 19.429 0 47.429-13.714 47.429-36.571 0-54.857-114.857-44.571-114.857-92.571 0-8.571 3.429-16.571 6.857-24.571 27.429-60 79.429-117.714 141.143-143.429 14.857-6.286 29.714-9.714 45.714-13.143 10.286-2.286 16-9.714 16-20 0-38.857-98.857-54.857-125.143-58.857-11.429-17.714-2.857-59.429-33.143-59.429-23.429 0-46.857 7.429-72 7.429-12 0-24-0.571-35.429-2.857-68-11.429-90.857-84.571-202.286-84.571-107.429 0-133.143 73.143-199.429 84.571-12 2.286-24 2.857-36 2.857-25.714 0-50.286-8.571-70.857-8.571-32 0-22.286 42.286-34.286 60.571-26.286 4-125.143 20-125.143 58.857 0 10.286 5.714 17.714 16 20 16 3.429 30.857 6.857 45.714 13.143 61.143 25.143 114.286 83.429 141.143 143.429 3.429 8 6.857 16 6.857 24.571 0 48-115.429 38.857-115.429 92 0 22.286 26.286 36.571 46.286 36.571 17.714 0 35.429-14.857 57.714-14.857 6.286 0 12.571 1.143 18.286 4-2.286 36-5.143 72-5.143 108.571 0 30.857 2.286 74.857 15.429 102.857 50.286 108.571 135.429 148 249.143 149.143z" />
<glyph unicode="&#xe99f;" glyph-name="gift" data-tags="gift, present, box" d="M771.516 618.667c18.126 12.88 35.512 27.216 51.444 43.148 33.402 33.402 55.746 74.5 62.912 115.722 7.858 45.186-3.672 87.14-31.63 115.1-22.3 22.298-52.51 34.086-87.364 34.086-49.632 0-101.922-23.824-143.46-65.362-66.476-66.476-105.226-158.238-126.076-223.722-15.44 65.802-46.206 154.644-106.018 214.458-32.094 32.092-73.114 48.57-111.846 48.57-31.654 0-61.78-11.004-84.26-33.486-49.986-49.988-43.232-137.786 15.086-196.104 20.792-20.792 45.098-38.062 70.72-52.412h-217.024v-256h64v-448h768v448.002h64v256h-188.484zM674.326 810.449c27.724 27.724 62.322 44.274 92.55 44.274 10.7 0 25.708-2.254 36.45-12.998 26.030-26.028 11.412-86.308-31.28-128.998-43.946-43.946-103.060-74.168-154.432-94.060h-50.672c18.568 57.548 52.058 136.456 107.384 191.782zM233.934 777.777c-0.702 9.12-0.050 26.248 12.196 38.494 10.244 10.244 23.788 12.396 33.348 12.396v0c21.258 0 43.468-10.016 60.932-27.48 33.872-33.872 61.766-87.772 80.668-155.876 0.51-1.84 1.008-3.67 1.496-5.486-1.816 0.486-3.646 0.984-5.486 1.496-68.104 18.904-122.002 46.798-155.874 80.67-15.828 15.826-25.77 36.16-27.28 55.786zM448-21.333h-256v416h256v-416zM448 426.667h-320v128h320v-128zM832-21.333h-256v416h256v-416zM896 426.667h-320v128h320v-128z" />
<glyph unicode="&#xf002;" glyph-name="search" data-tags="search" horiz-adv-x="951" d="M658.286 463.238c0 141.143-114.857 256-256 256s-256-114.857-256-256 114.857-256 256-256 256 114.857 256 256zM950.857-12.19c0-40-33.143-73.143-73.143-73.143-19.429 0-38.286 8-51.429 21.714l-196 195.429c-66.857-46.286-146.857-70.857-228-70.857-222.286 0-402.286 180-402.286 402.286s180 402.286 402.286 402.286 402.286-180 402.286-402.286c0-81.143-24.571-161.143-70.857-228l196-196c13.143-13.143 21.143-32 21.143-51.429z" />
<glyph unicode="&#xf023;" glyph-name="lock" data-tags="lock" horiz-adv-x="658" d="M182.857 499.81h292.571v109.714c0 80.571-65.714 146.286-146.286 146.286s-146.286-65.714-146.286-146.286v-109.714zM658.286 444.953v-329.143c0-30.286-24.571-54.857-54.857-54.857h-548.571c-30.286 0-54.857 24.571-54.857 54.857v329.143c0 30.286 24.571 54.857 54.857 54.857h18.286v109.714c0 140.571 115.429 256 256 256s256-115.429 256-256v-109.714h18.286c30.286 0 54.857-24.571 54.857-54.857z" />
<glyph unicode="&#xf06e;" glyph-name="eye" data-tags="eye" d="M950.857 390.096c-54.286 84-128.571 156-217.714 201.714 22.857-38.857 34.857-83.429 34.857-128.571 0-141.143-114.857-256-256-256s-256 114.857-256 256c0 45.143 12 89.714 34.857 128.571-89.143-45.714-163.429-117.714-217.714-201.714 97.714-150.857 255.429-256 438.857-256s341.143 105.143 438.857 256zM539.429 609.524c0 14.857-12.571 27.429-27.429 27.429-95.429 0-173.714-78.286-173.714-173.714 0-14.857 12.571-27.429 27.429-27.429s27.429 12.571 27.429 27.429c0 65.143 53.714 118.857 118.857 118.857 14.857 0 27.429 12.571 27.429 27.429zM1024 390.096c0-14.286-4.571-27.429-11.429-39.429-105.143-173.143-297.714-289.714-500.571-289.714s-395.429 117.143-500.571 289.714c-6.857 12-11.429 25.143-11.429 39.429s4.571 27.429 11.429 39.429c105.143 172.571 297.714 289.714 500.571 289.714s395.429-117.143 500.571-289.714c6.857-12 11.429-25.143 11.429-39.429z" />
<glyph unicode="&#xf08a;" glyph-name="heart-1" data-tags="heart-o" d="M950.857 598.096c0 160.571-108.571 194.286-200 194.286-85.143 0-181.143-92-210.857-127.429-13.714-16.571-42.286-16.571-56 0-29.714 35.429-125.714 127.429-210.857 127.429-91.429 0-200-33.714-200-194.286 0-104.571 105.714-201.714 106.857-202.857l332-320 331.429 319.429c1.714 1.714 107.429 98.857 107.429 203.429zM1024 598.096c0-137.143-125.714-252-130.857-257.143l-356-342.857c-6.857-6.857-16-10.286-25.143-10.286s-18.286 3.429-25.143 10.286l-356.571 344c-4.571 4-130.286 118.857-130.286 256 0 167.429 102.286 267.429 273.143 267.429 100 0 193.714-78.857 238.857-123.429 45.143 44.571 138.857 123.429 238.857 123.429 170.857 0 273.143-100 273.143-267.429z" />
</font>
</defs>
</svg>
